<?xml version="1.0" encoding="UTF-8"?>
<svg width="110px" height="48px" viewBox="0 0 110 48" version="1.1" xmlns="http://www.w3.org/2000/svg" xmlns:xlink="http://www.w3.org/1999/xlink">
	<g stroke="none" stroke-width="1" fill="none" fill-rule="evenodd">
		<g transform="translate(-1.000000, -18.000000)" fill="#5B6E7F">
			<g transform="translate(1.000000, 18.000000)">
				<g>
					<path class="st0" d="M39.3,8.5c-0.4-0.3-0.8-0.1-1.2,0.1c-0.4,0.2-0.7,0.4-0.9,0.1c-0.2-0.2-0.2-0.5,0-0.8c0.2-0.2,0.4-0.3,0.7-0.4
		l-0.1-0.2c-0.3,0.1-0.5,0.2-0.7,0.5c-0.3,0.4-0.4,0.9,0,1.2c0.4,0.3,0.8,0.1,1.1-0.1c0.4-0.2,0.7-0.4,0.9-0.1
		c0.2,0.2,0.2,0.6,0,0.9c-0.2,0.2-0.5,0.4-0.7,0.4l0.1,0.2c0.3-0.1,0.6-0.2,0.8-0.5C39.6,9.4,39.6,8.8,39.3,8.5z"/>
					<polygon class="st0" points="40.7,8.2 38.8,6.1 38.6,6.3 40.5,8.4 	"/>
					<polygon class="st0" points="41.8,7.2 40.3,5.3 43.1,6.3 43.4,6.1 41.7,3.8 41.4,4 42.9,5.9 40.1,4.9 39.9,5.1 41.6,7.4 	"/>
					<path class="st0" d="M43.7,2.6C43.6,2.7,43,3,43,3l1.3,2.5c0,0,0.6-0.3,0.7-0.3c0.9-0.4,1.1-1.2,0.7-2C45.3,2.4,44.5,2.2,43.7,2.6z
		 M44.9,4.9l-0.4,0.2l-1.1-2l0.4-0.2c0.7-0.3,1.3-0.2,1.6,0.4C45.8,4,45.5,4.6,44.9,4.9z"/>
					<path class="st0" d="M47.4,2.6c0.5,0,0.8,0,0.9,0.3c0.1,0.3-0.1,0.6-0.4,0.7c-0.3,0.1-0.6,0.1-0.9,0V4c0.3,0.1,0.6,0,0.9,0
		c0.5-0.2,0.8-0.6,0.6-1.1c-0.2-0.5-0.6-0.5-1-0.5c-0.4,0-0.8,0-0.9-0.3c-0.1-0.2,0-0.5,0.4-0.7c0.2-0.1,0.5-0.1,0.8,0l0-0.3
		c-0.3,0-0.6,0-0.9,0.1c-0.5,0.2-0.7,0.6-0.6,1C46.5,2.6,47,2.6,47.4,2.6z"/>
					<polygon class="st0" points="62.2,3.9 63.1,1.2 62.1,1.1 62,1.4 62.8,1.4 61.9,3.8 	"/>
					<path class="st0" d="M66,3.7c0.3-0.6,0.2-1.2-0.3-1.4c-0.5-0.2-1,0-1.2,0.4c-0.2,0.5,0,0.9,0.3,1.1c0.2,0.1,0.6,0.1,0.8,0l0,0
		c-0.4,0.5-1,0.7-1.8,0.5l0,0.2C64.8,4.9,65.6,4.3,66,3.7z M64.9,3.6c-0.3-0.1-0.4-0.4-0.3-0.8c0.2-0.3,0.5-0.5,0.9-0.3
		c0.4,0.2,0.4,0.6,0.2,1c0,0,0,0.1-0.1,0.1C65.4,3.7,65.1,3.7,64.9,3.6z"/>
					<polygon class="st0" points="66.1,5.8 66.3,6 68.8,4.5 68.9,4.3 67.4,3.3 67.3,3.5 68.6,4.3 	"/>
					<path class="st0" d="M69.7,6.6c0.5,0.2,0.8,0.2,1-0.1c0.3-0.3,0.2-0.7-0.2-1.1c-0.2-0.2-0.5-0.3-0.8-0.3l-0.1,0.2
		c0.2,0,0.5,0.1,0.7,0.2c0.2,0.2,0.3,0.5,0.1,0.7c-0.2,0.2-0.6,0.2-1.2-0.1l-0.2,0.2c0.1,0.1,0.2,0.1,0.3,0.2
		c0.3,0.3,0.4,0.6,0.2,0.8c-0.2,0.3-0.6,0.2-0.9,0c-0.2-0.2-0.3-0.4-0.4-0.6L68.2,7c0.1,0.2,0.2,0.4,0.4,0.6c0.4,0.3,1,0.4,1.3,0
		C70.2,7.4,70.2,7,69.7,6.6z"/>
					<path class="st0" d="M45,42.6c-0.7-0.4-1.5-0.1-1.9,0.7c-0.4,0.8-0.1,1.6,0.5,2c0.7,0.4,1.5,0.1,1.9-0.7C46,43.7,45.7,42.9,45,42.6
		z M45.3,44.4c-0.3,0.6-1,0.9-1.5,0.6c-0.6-0.3-0.7-1-0.4-1.6c0.3-0.6,1-0.8,1.5-0.5C45.4,43.1,45.6,43.7,45.3,44.4z"/>
					<polygon class="st0" points="46.2,46.3 46.4,46.4 47.5,43.7 47.2,43.6 	"/>
					<path class="st0" d="M49.3,44.3c0,0-0.7-0.2-0.7-0.2l-0.7,2.7l0.3,0.1l0.3-1.1L49,46l0.4,1.3l0.3,0.1L49.3,46
		c0.4,0,0.7-0.2,0.8-0.6C50.3,44.9,50,44.5,49.3,44.3z M49.8,45.3c-0.1,0.3-0.5,0.5-0.8,0.4l-0.5-0.1l0.3-1.1c0,0,0.4,0.1,0.4,0.1
		C49.7,44.7,49.9,45,49.8,45.3z"/>
					<path class="st0" d="M51.1,45.5c-0.1,0.5,0.3,0.7,0.7,0.9c0.4,0.2,0.7,0.3,0.6,0.7c0,0.3-0.3,0.5-0.7,0.4c-0.3,0-0.6-0.2-0.8-0.4
		l-0.1,0.2c0.2,0.2,0.5,0.3,0.9,0.4c0.6,0.1,1-0.2,1.1-0.7c0.1-0.5-0.3-0.7-0.7-0.9c-0.4-0.2-0.7-0.3-0.6-0.6c0-0.2,0.3-0.4,0.7-0.4
		c0.2,0,0.5,0.1,0.7,0.3l0.2-0.2c-0.2-0.2-0.5-0.3-0.8-0.3C51.6,44.8,51.2,45,51.1,45.5z"/>
					<path class="st0" d="M55.3,47.7c-0.6,0-1.1-0.4-1.1-1.2c0-0.8,0.4-1.2,1.1-1.2c0.3,0,0.6,0.1,0.8,0.2l0.1-0.2
		c-0.2-0.1-0.5-0.2-0.9-0.2c-0.8,0-1.4,0.6-1.3,1.5c0,0.9,0.6,1.5,1.4,1.4c0.3,0,0.6-0.1,0.8-0.2l0-0.3
		C55.9,47.6,55.6,47.7,55.3,47.7z"/>
					<polygon class="st0" points="59.1,44.7 59.3,46 57.6,46.2 57.4,45 57.1,45 57.6,47.8 57.9,47.8 57.7,46.5 59.3,46.2 59.5,47.5
		59.8,47.5 59.4,44.7 	"/>
					<path class="st0" d="M61.7,43.9c-0.8,0.2-1.1,1-0.9,1.8c0.3,0.8,1,1.2,1.8,1c0.8-0.2,1.1-1,0.9-1.9C63.2,44.1,62.4,43.7,61.7,43.9z
		 M62.5,46.5c-0.6,0.2-1.2-0.1-1.4-0.8c-0.2-0.7,0-1.3,0.7-1.5s1.2,0.1,1.4,0.8C63.4,45.7,63.1,46.3,62.5,46.5z"/>
					<polygon class="st0" points="65.8,42.5 65.7,42.2 63.6,43.3 63.8,43.5 64.7,43.1 65.8,45.4 66.1,45.2 64.9,42.9 	"/>
					<polygon class="st0" points="54.7,7.6 58.2,0.4 58.5,0.4 55,7.6 55.5,7.6 59.2,0 57.9,0 54.6,6.9 51.5,0.4 52.7,0.4 54.6,4.3
		54.8,3.9 52.9,0 50.8,0 54.5,7.6 	"/>
					<polygon class="st0" points="52.4,0.7 52,0.7 54.6,6.1 57.5,0 57.1,0 54.6,5.2 	"/>
					<polygon class="st0" points="13.5,26.3 12.1,17.3 10,17.3 12.3,29.4 14.5,29.4 16.8,17.3 14.9,17.3 	"/>
					<polygon class="st0" points="23.2,27.6 19.8,27.6 19.8,24.1 22.6,24.1 22.6,22.4 19.8,22.4 19.8,19.1 23.1,19.1 23.1,17.3
		17.8,17.3 17.8,29.4 23.2,29.4 	"/>
					<path class="st0" d="M31.2,29.4l-1.7-5.1c0.8-0.4,1.3-1.1,1.3-2.2v-2.1c0-1.8-1.2-2.5-3-2.5h-3.1v12.1h2v-4.8h1l1.5,4.8
		C29.2,29.4,31.2,29.4,31.2,29.4z M28.8,21.7c0,0.9-0.4,1.1-1.1,1.1h-1v-3.8h1c0.6,0,1.1,0.2,1.1,1.1V21.7z"/>
					<path class="st0" d="M36.3,22.8L34.9,22c-0.6-0.3-0.8-0.6-0.8-1.2v-0.8c0-0.7,0.4-1,1-1s1,0.3,1,1v1.7h2v-2c0-1.8-1.3-2.5-3-2.5h0
		c-1.7,0-3,0.7-3,2.5v1.6c0,1.2,0.7,1.8,1.8,2.5l1.4,0.8c0.6,0.3,0.8,0.6,0.8,1.2v0.9c0,0.7-0.4,1.1-1,1.1c-0.6,0-1-0.3-1-1.1v-1.8
		h-2V27c0,1.9,1.1,2.5,3,2.5h0c1.8,0,3-0.6,3-2.5v-1.7C38.2,24,37.5,23.4,36.3,22.8z"/>
					<path class="st0" d="M42.8,17.3h-3.1v12.1h2v-4.7h1.1c1.8,0,3-0.7,3-2.5v-2.3C45.8,18,44.6,17.3,42.8,17.3z M43.8,21.8
		c0,0.9-0.4,1.1-1.1,1.1h-1v-3.9h1c0.6,0,1.1,0.2,1.1,1.1V21.8z"/>
					<path class="st0" d="M53,29.4l-2.3-12.1h-2.5l-2.2,12.1h1.9l0.4-2.7h2.2l0.4,2.7H53z M48.6,25l0.8-5.4l0.8,5.4H48.6z"/>
					<path class="st0" d="M55.6,17.3l-2.2,12.1h1.9l0.4-2.7H58l0.4,2.7h2l-2.3-12.1H55.6z M56,25l0.8-5.4l0.8,5.4H56z"/>
					<polygon class="st0" points="63.3,21.5 65.9,29.4 67.8,29.4 67.8,17.3 66,17.3 66,24.8 63.5,17.3 61.4,17.3 61.4,29.4 63.3,29.4
		"/>
					<path class="st0" d="M75.7,26.8v-7c0-1.8-1.2-2.5-3-2.5h-3.1v12.1h3.1C74.5,29.4,75.7,28.7,75.7,26.8z M71.6,27.6v-8.5h1
		c0.6,0,1.1,0.2,1.1,1.1v6.3c0,0.9-0.4,1.1-1.1,1.1C72.6,27.6,71.6,27.6,71.6,27.6z"/>
					<path class="st0" d="M80.5,17.2h-0.1c-1.8,0-3,0.7-3,2.5V27c0,1.8,1.2,2.5,3,2.5h0.1c1.8,0,3-0.7,3-2.5v-7.2
		C83.6,17.9,82.4,17.2,80.5,17.2z M81.6,26.7c0,0.9-0.4,1.1-1.1,1.1c-0.6,0-1.1-0.2-1.1-1.1V20c0-0.9,0.4-1.1,1.1-1.1
		c0.6,0,1.1,0.2,1.1,1.1V26.7z"/>
					<polygon class="st0" points="91.6,17.3 89.8,17.3 89.8,24.8 87.2,17.3 85.2,17.3 85.2,29.4 87.1,29.4 87.1,21.5 89.7,29.4
		91.6,29.4 	"/>
					<polygon class="st0" points="97.5,21.8 99.8,17.3 97.7,17.3 95.4,22.7 95.4,17.3 93.4,17.3 93.4,29.4 95.4,29.4 95.4,25.9
		96.3,24.1 97.9,29.4 100,29.4 	"/>
					<polygon class="st0" points="32.5,33 31.2,36.4 29.9,33 29.2,33 29,37.2 29.6,37.2 29.6,33.7 30.9,37.1 31.5,37.1 32.7,33.7
		32.8,37.2 33.3,37.2 33.2,33 	"/>
					<polygon class="st0" points="34.9,37.2 37.6,37.2 37.6,36.7 35.5,36.7 35.5,35.4 37.2,35.4 37.2,34.8 35.5,34.8 35.5,33.6
		37.6,33.6 37.6,33 34.9,33 	"/>
					<polygon class="st0" points="41.9,36.4 39.7,33 39.1,33 39.1,37.2 39.6,37.2 39.6,33.8 41.8,37.2 42.5,37.2 42.5,33 41.9,33 	"/>
					<path class="st0" d="M43.7,34.4l0.2,0.2c0.5-0.3,1-0.7,1-1.3c0-0.3-0.3-0.6-0.6-0.6s-0.4,0.2-0.4,0.4c0.3,0.2,0.5,0.3,0.5,0.4
		C44.4,33.8,44.2,34.1,43.7,34.4z"/>
					<path class="st0" d="M47.4,36.8c-0.5,0-0.8-0.2-1.2-0.4L46,36.9c0.4,0.2,0.9,0.4,1.4,0.4c0.9,0,1.4-0.5,1.4-1.2
		c0-0.8-0.6-1.1-1.2-1.2c-0.6-0.2-1-0.3-1-0.7c0-0.3,0.2-0.6,0.8-0.6c0.4,0,0.8,0.1,1.1,0.3l0.2-0.5c-0.4-0.2-0.8-0.4-1.3-0.4
		c-0.8,0-1.4,0.5-1.4,1.2c0,0.8,0.6,1,1.2,1.2c0.7,0.2,1,0.3,1,0.7C48.3,36.5,47.9,36.8,47.4,36.8z"/>
					<polygon class="st0" points="54.7,34.9 53.1,34.9 53.1,33.6 55,33.6 55,33 52.5,33 52.5,37.2 53.1,37.2 53.1,35.4 54.7,35.4 	"/>
					<path class="st0" d="M58.9,37.2h0.6l-1.5-4.1h-0.6l-1.5,4.1h0.6l0.4-1.1h1.8L58.9,37.2z M56.9,35.6l0.7-1.9l0.7,1.9H56.9z"/>
					<path class="st0" d="M63.2,36c0-0.8-0.6-1.1-1.2-1.2c-0.6-0.2-1-0.3-1-0.7c0-0.3,0.2-0.6,0.8-0.6c0.4,0,0.8,0.1,1.1,0.3l0.2-0.5
		c-0.4-0.2-0.8-0.4-1.3-0.4c-0.8,0-1.4,0.5-1.4,1.2c0,0.8,0.6,1,1.2,1.2c0.7,0.2,1,0.3,1,0.7c0,0.4-0.4,0.7-0.9,0.7
		c-0.5,0-0.8-0.2-1.2-0.4l-0.2,0.5c0.4,0.2,0.9,0.4,1.4,0.4C62.7,37.3,63.2,36.8,63.2,36z"/>
					<polygon class="st0" points="67.6,34.8 65.3,34.8 65.3,33 64.7,33 64.7,37.2 65.3,37.2 65.3,35.4 67.6,35.4 67.6,37.2 68.1,37.2
		68.1,33 67.6,33 	"/>
					<rect x="69.8" y="33" class="st0" width="0.5" height="4.1"/>
					<path class="st0" d="M74,32.9c-1.2,0-2.1,0.9-2.1,2.2c0,1.3,0.9,2.1,2.1,2.1c1.2,0,2.1-0.9,2.1-2.2C76.1,33.8,75.2,32.9,74,32.9z
		 M74,36.8c-0.9,0-1.5-0.6-1.5-1.7c0-1,0.6-1.6,1.5-1.6c0.9,0,1.5,0.6,1.5,1.7C75.5,36.1,74.9,36.8,74,36.8z"/>
					<polygon class="st0" points="80.4,36.4 78.2,33 77.6,33 77.6,37.2 78.1,37.2 78.1,33.8 80.3,37.2 81,37.2 81,33 80.4,33 	"/>
					<path class="st0" d="M92.5,34.9h-2c-0.1,0-0.1,0-0.1,0.1s0.1,0.1,0.1,0.1h2c0.1,0,0.1,0,0.1-0.1S92.6,34.9,92.5,34.9z"/>
					<path class="st0" d="M96.6,34.9h-2c-0.1,0-0.1,0-0.1,0.1s0.1,0.1,0.1,0.1h2c0.1,0,0.1,0,0.1-0.1S96.6,34.9,96.6,34.9z"/>
					<path class="st0" d="M88.4,34.9h-2c-0.1,0-0.1,0-0.1,0.1s0.1,0.1,0.1,0.1h2c0.1,0,0.1,0,0.1-0.1S88.5,34.9,88.4,34.9z"/>
					<path class="st0" d="M23.6,34.9h-2c-0.1,0-0.1,0-0.1,0.1s0,0.1,0.1,0.1h2c0.1,0,0.1,0,0.1-0.1S23.7,34.9,23.6,34.9z"/>
					<path class="st0" d="M19.6,34.9h-2c-0.1,0-0.1,0-0.1,0.1s0,0.1,0.1,0.1h2c0.1,0,0.1,0,0.1-0.1S19.6,34.9,19.6,34.9z"/>
					<path class="st0" d="M15.5,34.9h-2c-0.1,0-0.1,0-0.1,0.1s0,0.1,0.1,0.1h2c0.1,0,0.1,0,0.1-0.1S15.5,34.9,15.5,34.9z"/>
				</g>
			</g>
		</g>
	</g>
</svg>